<?xml version="1.0" encoding="UTF-8" standalone="no"?>
<svg
   xmlns:dc="http://purl.org/dc/elements/1.1/"
   xmlns:cc="http://creativecommons.org/ns#"
   xmlns:rdf="http://www.w3.org/1999/02/22-rdf-syntax-ns#"
   xmlns:svg="http://www.w3.org/2000/svg"
   xmlns="http://www.w3.org/2000/svg"
   xmlns:sodipodi="http://sodipodi.sourceforge.net/DTD/sodipodi-0.dtd"
   xmlns:inkscape="http://www.inkscape.org/namespaces/inkscape"
   sodipodi:docname="FDB ICON.svg"
   inkscape:version="1.0beta2 (9cc99b8, 2019-12-14)"
   id="svg8"
   version="1.1"
   viewBox="0 0 210 210"
   height="210mm"
   width="210mm">
  <defs
     id="defs2" />
  <sodipodi:namedview
     inkscape:pagecheckerboard="true"
     inkscape:window-maximized="0"
     inkscape:window-y="19"
     inkscape:window-x="146"
     inkscape:window-height="1036"
     inkscape:window-width="1593"
     inkscape:snap-page="true"
     inkscape:snap-global="true"
     showgrid="false"
     inkscape:document-rotation="0"
     inkscape:current-layer="layer1"
     inkscape:document-units="mm"
     inkscape:cy="887.38745"
     inkscape:cx="-446.94747"
     inkscape:zoom="0.24748737"
     inkscape:pageshadow="2"
     inkscape:pageopacity="0.0"
     borderopacity="1.0"
     bordercolor="#666666"
     pagecolor="#ffffff"
     id="base" />
  <metadata
     id="metadata5">
    <rdf:RDF>
      <cc:Work
         rdf:about="">
        <dc:format>image/svg+xml</dc:format>
        <dc:type
           rdf:resource="http://purl.org/dc/dcmitype/StillImage" />
        <dc:title></dc:title>
      </cc:Work>
    </rdf:RDF>
  </metadata>
  <g
     id="layer1"
     inkscape:groupmode="layer"
     inkscape:label="Layer 1">
    <rect
       ry="105"
       y="1.6579331e-15"
       x="-4.1507538e-14"
       height="210"
       width="210"
       id="rect860"
       style="opacity:0.997;fill:#ffffff;fill-opacity:0.996078;stroke-width:0.543029" />
    <path
       sodipodi:nodetypes="ccccc"
       inkscape:connector-curvature="0"
       d="m 25.175264,46.814668 c -0.788493,-3.583971 4.552788,-4.706546 5.479392,-1.215824 L 58.5607,171.36392 c 1.041209,4.06881 -4.225623,5.59387 -5.434439,1.54688 z"
       style="opacity:0.997;fill:#000000;fill-opacity:0.996078;stroke-width:0.487098"
       id="rect833" />
    <path
       sodipodi:nodetypes="cccc"
       inkscape:connector-curvature="0"
       id="path848"
       d="m 67.302944,57.697216 c 0,0 -1.0491,2.563956 -1.281978,4.178053 -2.572468,-3.30746 -7.653372,-2.668116 -11.528779,-3.002202 5.946748,-2.338608 12.810757,-1.175851 12.810757,-1.175851 z"
       style="opacity:0.997;fill:#ffffff;fill-opacity:0.996078;stroke-width:0.487098" />
    <path
       sodipodi:nodetypes="csscsccscsccc"
       inkscape:connector-curvature="0"
       id="path850"
       d="m 27.861555,47.281473 c 21.85416,-10.308566 59.169885,-8.722938 83.012205,5.817861 9.83969,6.000961 -8.95618,12.352409 -4.03462,17.527438 10.44842,10.986543 40.86296,3.913888 40.86296,3.913888 0,0 -19.78509,12.568065 -28.5708,12.753437 -19.635764,0.4143 -31.006555,-5.220777 -25.538276,-18.918057 0,0 -17.776395,-5.917894 -36.144576,-2.547265 48.583562,11.357803 8.500899,21.313668 25.384662,27.571642 11.772849,4.363611 -0.996876,5.089915 -0.996876,5.089915 0,0 18.376376,4.078728 -3.247053,4.982958 -13.005147,0.54384 -18.276084,-5.475213 -12.298131,-12.545903 0,0 -20.332483,-6.584488 -26.300727,6.326182 z"
       style="opacity:0.997;fill:#d40000;fill-opacity:0.996078;stroke-width:0.549533" />
    <text
       id="text844"
       y="142.98756"
       x="54.106892"
       style="font-size:55.414px;line-height:1.25;font-family:'Courier New';-inkscape-font-specification:'Courier New';stroke-width:0.288614"
       xml:space="preserve"><tspan
         style="font-style:italic;font-variant:normal;font-weight:normal;font-stretch:normal;font-size:115.445px;font-family:'Courier New';-inkscape-font-specification:'Courier New Italic';stroke-width:0.288614"
         y="142.98756"
         x="54.106892"
         id="tspan842"
         sodipodi:role="line">DB</tspan></text>
    <text
       xml:space="preserve"
       style="font-size:55.414px;line-height:1.25;font-family:'Courier New';-inkscape-font-specification:'Courier New';stroke-width:0.288614"
       x="51.46106"
       y="142.98756"
       id="text864"><tspan
         sodipodi:role="line"
         id="tspan862"
         x="51.46106"
         y="142.98756"
         style="font-style:italic;font-variant:normal;font-weight:normal;font-stretch:normal;font-size:115.445px;font-family:'Courier New';-inkscape-font-specification:'Courier New Italic';stroke-width:0.288614">DB</tspan></text>
    <path
       style="opacity:0.997;fill:#d40000;fill-opacity:0.996078;stroke-width:0.549533"
       d="m 77.932327,89.961111 c 0.446425,1.189932 1.8754,2.266299 4.900783,3.439306 10.474761,4.061294 30.17156,-0.0697 30.17156,-0.0697 0,0 -14.842211,9.447013 -34.415489,10.142573 -13.008302,0.46226 -18.276084,-5.47521 -12.298131,-12.5459 z"
       id="path856"
       inkscape:connector-curvature="0"
       sodipodi:nodetypes="sscscs" />
  </g>
</svg>
