<?xml version="1.0" encoding="UTF-8" standalone="no"?>
<svg
   xmlns:dc="http://purl.org/dc/elements/1.1/"
   xmlns:cc="http://creativecommons.org/ns#"
   xmlns:rdf="http://www.w3.org/1999/02/22-rdf-syntax-ns#"
   xmlns:svg="http://www.w3.org/2000/svg"
   xmlns="http://www.w3.org/2000/svg"
   xmlns:sodipodi="http://sodipodi.sourceforge.net/DTD/sodipodi-0.dtd"
   xmlns:inkscape="http://www.inkscape.org/namespaces/inkscape"
   width="210mm"
   height="210mm"
   viewBox="0 0 210 210"
   version="1.1"
   id="svg8"
   inkscape:version="1.0beta2 (9cc99b8, 2019-12-14)"
   sodipodi:docname="FDB Full Text.svg">
  <defs
     id="defs2" />
  <sodipodi:namedview
     id="base"
     pagecolor="#ffffff"
     bordercolor="#666666"
     borderopacity="1.0"
     inkscape:pageopacity="0.0"
     inkscape:pageshadow="2"
     inkscape:zoom="0.49497475"
     inkscape:cx="557.32427"
     inkscape:cy="78.882082"
     inkscape:document-units="mm"
     inkscape:current-layer="layer1"
     inkscape:document-rotation="0"
     showgrid="false"
     inkscape:snap-global="true"
     inkscape:snap-page="true"
     inkscape:window-width="1593"
     inkscape:window-height="1036"
     inkscape:window-x="146"
     inkscape:window-y="0"
     inkscape:window-maximized="0"
     inkscape:pagecheckerboard="true" />
  <metadata
     id="metadata5">
    <rdf:RDF>
      <cc:Work
         rdf:about="">
        <dc:format>image/svg+xml</dc:format>
        <dc:type
           rdf:resource="http://purl.org/dc/dcmitype/StillImage" />
        <dc:title />
      </cc:Work>
    </rdf:RDF>
  </metadata>
  <g
     inkscape:label="Layer 1"
     inkscape:groupmode="layer"
     id="layer1">
    <path
       id="rect833"
       style="opacity:0.997;fill:#000000;fill-opacity:0.996078;stroke-width:0.218302"
       d="m 4.8617066,64.54883 c -0.353378,-1.606226 2.04042,-2.10933 2.455696,-0.544895 L 19.824035,120.36797 c 0.466638,1.82352 -1.893794,2.507 -2.435548,0.69327 z"
       inkscape:connector-curvature="0"
       sodipodi:nodetypes="ccccc" />
    <path
       style="opacity:0.997;fill:#d40000;fill-opacity:0.996078;stroke-width:0.246284"
       d="m 6.0656206,64.758038 c 9.7943644,-4.619983 26.5181274,-3.909353 37.2035234,2.607386 4.409847,2.689447 -4.013885,5.535971 -1.808193,7.85526 4.682661,4.923836 18.313525,1.754085 18.313525,1.754085 0,0 -8.86707,5.632621 -12.804556,5.715701 -8.800147,0.18567 -13.896187,-2.33979 -11.445472,-8.478495 0,0 -7.966835,-2.652218 -16.19889,-1.141606 21.773662,5.090221 3.809842,9.552131 11.376627,12.356761 5.27623,1.95564 -0.446769,2.28115 -0.446769,2.28115 0,0 8.235728,1.82796 -1.45523,2.23321 -5.828508,0.24373 -8.19078,-2.45383 -5.511645,-5.62269 0,0 -9.112395,-2.95097 -11.787179,2.8352 z"
       id="path850"
       inkscape:connector-curvature="0"
       sodipodi:nodetypes="csscsccscsccc" />
    <text
       xml:space="preserve"
       style="font-size:32.2307px;line-height:1.25;font-family:'Courier New';-inkscape-font-specification:'Courier New';stroke-width:0.167868"
       x="92.512512"
       y="156.59473"
       id="text844"><tspan
         sodipodi:role="line"
         id="tspan842"
         x="92.512512"
         y="156.59473"
         style="font-style:italic;font-variant:normal;font-weight:normal;font-stretch:normal;font-size:67.1467px;font-family:'Courier New';-inkscape-font-specification:'Courier New Italic';stroke-width:0.167868">DB</tspan></text>
    <text
       id="text868"
       y="102.54412"
       x="21.231623"
       style="font-size:20.7978px;line-height:1.25;font-family:'Courier New';-inkscape-font-specification:'Courier New';stroke-width:0.108322"
       xml:space="preserve"><tspan
         style="font-style:italic;font-variant:normal;font-weight:normal;font-stretch:normal;font-size:43.3284px;font-family:'Courier New';-inkscape-font-specification:'Courier New Italic';stroke-width:0.108322"
         y="102.54412"
         x="21.231623"
         id="tspan866"
         sodipodi:role="line">ORTRESS</tspan></text>
    <g
       aria-label="ORTRESS"
       id="text872"
       style="font-size:20.7978px;line-height:1.25;font-family:'Courier New';-inkscape-font-specification:'Courier New';stroke-width:0.108322">
      <path
         d="m 33.316057,103.24228 q -3.617752,0 -6.029587,-2.60224 -2.390678,-2.623398 -2.390678,-7.066252 0,-3.490813 1.396325,-6.66428 1.396325,-3.173467 3.51197,-5.352581 2.115644,-2.179114 4.400541,-3.258092 2.284896,-1.078979 4.633261,-1.078979 4.273602,0 6.346934,3.004215 2.073331,2.983059 2.073331,6.537342 0,4.252445 -2.115644,8.2087 -2.094488,3.956256 -5.373737,6.114217 -3.258093,2.15795 -6.452716,2.15795 z m 0.317347,-1.77714 q 2.644555,0 5.458362,-1.882922 2.834964,-1.90408 4.569793,-5.35258 1.755984,-3.469657 1.755984,-7.002783 0,-3.765848 -2.009862,-5.987274 -2.009862,-2.242584 -4.844826,-2.242584 -1.988706,0 -3.935099,0.95204 -1.925236,0.930884 -3.723534,2.813808 -1.777141,1.882923 -2.983059,4.654418 -1.205917,2.750337 -1.205917,5.64877 0,3.913943 2.009862,6.156526 2.031019,2.242581 4.908296,2.242581 z"
         style="font-style:italic;font-variant:normal;font-weight:normal;font-stretch:normal;font-size:43.3284px;font-family:'Courier New';-inkscape-font-specification:'Courier New Italic';stroke-width:0.108322"
         id="path874" />
      <path
         d="m 55.995765,91.500456 -1.967549,9.266524 h 3.279249 q 0.59238,0 0.803945,0.19041 0.211564,0.16925 0.211564,0.50775 0,0.44429 -0.359659,0.76163 -0.338503,0.31735 -1.036666,0.31735 H 49.47958 q -0.59238,0 -0.803945,-0.19041 -0.211564,-0.19041 -0.211564,-0.52891 0,-0.42313 0.338503,-0.74047 0.35966,-0.31735 1.057822,-0.31735 h 2.390679 l 4.506322,-21.198759 h -2.390678 q -0.59238,0 -0.803945,-0.169251 -0.211564,-0.190408 -0.211564,-0.550068 0,-0.423129 0.338503,-0.740475 0.359659,-0.317347 1.057822,-0.317347 h 10.726318 q 2.919589,0 4.717887,1.692516 1.819454,1.671359 1.819454,3.998568 0,2.20027 -1.777141,4.252445 -1.755985,2.031019 -5.796866,3.300406 1.60789,1.290543 2.602243,2.919589 0.994353,1.60789 2.898433,6.812376 h 1.375169 q 0.59238,0 0.803945,0.19041 0.211564,0.16925 0.211564,0.50775 0,0.44429 -0.35966,0.76163 -0.338503,0.31735 -1.036665,0.31735 H 68.541537 Q 66.552832,96.662629 65.13535,94.652767 63.739024,92.621748 61.62338,91.500456 Z m 0.380816,-1.777141 h 4.82367 q 2.454148,0 4.696731,-0.973196 2.263739,-0.973197 3.279249,-2.327209 1.036666,-1.354013 1.036666,-2.538774 0,-1.692515 -1.438639,-3.004215 -1.438638,-1.3117 -3.702378,-1.3117 h -6.537341 z"
         style="font-style:italic;font-variant:normal;font-weight:normal;font-stretch:normal;font-size:43.3284px;font-family:'Courier New';-inkscape-font-specification:'Courier New Italic';stroke-width:0.108322"
         id="path876" />
      <path
         d="m 91.157777,79.568221 -4.506323,21.198759 h 4.612105 c 0.39492,0 0.662902,0.0635 0.803945,0.19041 0.141043,0.11283 0.211564,0.28208 0.211564,0.50775 0,0.29619 -0.119886,0.55007 -0.359659,0.76163 -0.225669,0.21157 -0.571225,0.31735 -1.036666,0.31735 H 79.860235 c -0.394921,0 -0.662902,-0.0635 -0.803945,-0.19041 -0.141043,-0.12694 -0.211564,-0.30324 -0.211564,-0.52891 0,-0.28209 0.112834,-0.52891 0.338503,-0.74047 0.239773,-0.21157 0.59238,-0.31735 1.057822,-0.31735 h 4.612105 l 4.506323,-21.198759 h -7.277817 l -1.3117,6.156526 c -0.08463,0.437233 0.227908,0.914571 0.01634,1.097926 -0.038,0.171545 -0.890811,0.107991 -1.158792,0.107991 -0.211565,0 -0.387868,-0.06347 -0.528911,-0.190408 -0.126939,-0.141043 -0.190408,-0.29619 -0.190408,-0.465442 0,-0.126939 0.02821,-0.310294 0.08463,-0.550067 L 80.68534,77.79108 h 19.90821 l -1.69251,7.933667 c -0.08463,0.437233 0.351931,0.839402 0.140366,1.022757 -0.03617,0.233469 -1.03599,0.18316 -1.303971,0.18316 -0.19746,0 -0.366712,-0.06347 -0.507755,-0.190408 -0.126939,-0.141043 -0.190408,-0.29619 -0.190408,-0.465442 0,-0.126939 0.02821,-0.310294 0.08463,-0.550067 l 1.3117,-6.156526 z"
         style="font-style:italic;font-variant:normal;font-weight:normal;font-stretch:normal;font-size:43.3284px;font-family:'Courier New';-inkscape-font-specification:'Courier New Italic';stroke-width:0.108322"
         id="path878"
         inkscape:connector-curvature="0"
         sodipodi:nodetypes="ccscscsssscscccccscscccccscsccc" />
      <path
         d="m 107.95599,91.500456 -1.96755,9.266524 h 3.27925 q 0.59238,0 0.80394,0.19041 0.21157,0.16925 0.21157,0.50775 0,0.44429 -0.35966,0.76163 -0.3385,0.31735 -1.03667,0.31735 h -7.44707 q -0.59238,0 -0.80394,-0.19041 -0.21156,-0.19041 -0.21156,-0.52891 0,-0.42313 0.3385,-0.74047 0.35966,-0.31735 1.05782,-0.31735 h 2.39068 l 4.50632,-21.198759 h -2.39068 q -0.59238,0 -0.80394,-0.169251 -0.21157,-0.190408 -0.21157,-0.550068 0,-0.423129 0.33851,-0.740475 0.35966,-0.317347 1.05782,-0.317347 h 10.72632 q 2.91959,0 4.71788,1.692516 1.81946,1.671359 1.81946,3.998568 0,2.20027 -1.77714,4.252445 -1.75599,2.031019 -5.79687,3.300406 1.60789,1.290543 2.60224,2.919589 0.99436,1.60789 2.89844,6.812376 h 1.37517 q 0.59238,0 0.80394,0.19041 0.21157,0.16925 0.21157,0.50775 0,0.44429 -0.35966,0.76163 -0.33851,0.31735 -1.03667,0.31735 h -2.39068 q -1.9887,-5.881491 -3.40619,-7.891353 -1.39632,-2.031019 -3.51197,-3.152311 z m 0.38082,-1.777141 h 4.82367 q 2.45414,0 4.69673,-0.973196 2.26374,-0.973197 3.27924,-2.327209 1.03667,-1.354013 1.03667,-2.538774 0,-1.692515 -1.43864,-3.004215 -1.43864,-1.3117 -3.70238,-1.3117 h -6.53734 z"
         style="font-style:italic;font-variant:normal;font-weight:normal;font-stretch:normal;font-size:43.3284px;font-family:'Courier New';-inkscape-font-specification:'Courier New Italic';stroke-width:0.108322"
         id="path880" />
      <path
         d="m 134.10536,90.590729 -2.15796,10.176251 h 13.66707 l 1.10013,-5.246799 c 0.0987,-0.423129 0.24683,-0.726371 0.44429,-0.909727 0.21156,-0.183356 0.45133,-0.275034 0.71931,-0.275034 0.19746,0 0.97387,-0.04284 1.10081,0.0841 0.14105,0.126939 -0.40264,0.38134 -0.40264,0.550591 0,0.126939 -0.0212,0.310295 -0.0635,0.550068 l -1.50211,7.023939 h -19.61202 c -0.39492,0 -0.6629,-0.0635 -0.80395,-0.19041 -0.14104,-0.12694 -0.21156,-0.30324 -0.21156,-0.52891 0,-0.28209 0.11283,-0.52891 0.3385,-0.74047 0.23977,-0.21157 0.59238,-0.31735 1.05782,-0.31735 h 2.39068 l 4.50632,-21.198759 h -2.39068 c -0.39492,0 -0.6629,-0.05642 -0.80394,-0.169251 -0.14104,-0.126939 -0.21156,-0.310295 -0.21156,-0.550068 0,-0.282086 0.11283,-0.528911 0.3385,-0.740475 0.23977,-0.211565 0.59238,-0.317347 1.05782,-0.317347 h 18.68114 l -0.7354,6.2562 c -0.0846,0.437233 -0.23272,0.747527 -0.44428,0.930883 -0.19746,0.169252 -1.00648,0.111891 -1.27447,0.111891 -0.21156,0 -0.38786,-0.06347 -0.52891,-0.190408 -0.12694,-0.126939 -0.19041,-0.275034 -0.19041,-0.444286 0,-0.126939 0.0282,-0.310294 0.0846,-0.550067 l 0.90973,-4.337072 h -12.71503 l -1.96755,9.245367 h 6.36809 l 0.42313,-2.009862 c 0.0987,-0.423129 0.24683,-0.726372 0.44429,-0.909728 0.21157,-0.183355 0.45134,-0.275033 0.71932,-0.275033 0.19746,0 0.96911,-0.04284 1.11015,0.0841 0.14105,0.126939 -0.39083,0.388392 -0.39083,0.571747 0,0.112835 -0.0282,0.289139 -0.0846,0.528912 l -1.22707,5.796866 c -0.0987,0.423129 0.2304,0.891736 0.0188,1.075092 -0.19746,0.183355 -0.91446,0.109668 -1.18245,0.109668 -0.19746,0 -0.36671,-0.06347 -0.50775,-0.190408 -0.12694,-0.126939 -0.19041,-0.282086 -0.19041,-0.465441 0,-0.126939 0.0212,-0.303242 0.0635,-0.528911 l 0.42313,-2.009863 z"
         style="font-style:italic;font-variant:normal;font-weight:normal;font-stretch:normal;font-size:43.3284px;font-family:'Courier New';-inkscape-font-specification:'Courier New Italic';stroke-width:0.108322"
         id="path882"
         inkscape:connector-curvature="0"
         sodipodi:nodetypes="cccccscsccscscsccscscscccscscccccccscscccscsccc" />
      <path
         d="m 174.57764,79.568221 c 0.16925,-0.789841 0.3244,-1.262334 0.46544,-1.417481 0.23977,-0.239773 0.51481,-0.35966 0.8251,-0.35966 0.19747,0 0.97773,-0.07016 1.10466,0.05677 0.14105,0.126939 -0.40649,0.415721 -0.40649,0.599077 0,0.112834 -0.0282,0.289138 -0.0846,0.528911 l -0.95204,4.527479 c -0.0987,0.423129 0.26396,0.910119 0.0524,1.093475 -0.19746,0.183356 -0.94801,0.09129 -1.21599,0.09129 -0.19746,0 -0.36671,-0.06347 -0.50776,-0.190408 -0.12694,-0.126939 -0.19041,-0.282086 -0.19041,-0.465442 0,-0.09873 0.0141,-0.239773 0.0423,-0.423129 0.0423,-0.19746 0.0635,-0.39492 0.0635,-0.59238 0,-1.057822 -0.47955,-1.988706 -1.43864,-2.792651 -0.95909,-0.818049 -2.27785,-1.227074 -3.95626,-1.227074 -2.22848,0 -4.05499,0.620589 -5.47952,1.861768 -1.41043,1.227073 -2.11564,2.59519 -2.11564,4.10435 0,1.114239 0.42313,1.960497 1.26939,2.538773 0.84625,0.592381 2.33426,1.071927 4.46401,1.438639 2.12975,0.366711 3.56838,0.698162 4.31591,0.994352 1.04372,0.423129 1.83356,1.001406 2.36952,1.734829 0.53597,0.733423 0.80395,1.64315 0.80395,2.729181 0,1.466847 -0.43723,2.891381 -1.3117,4.273602 -0.86037,1.368119 -2.17207,2.475309 -3.9351,3.321559 -1.76304,0.83215 -3.58955,1.24823 -5.47952,1.24823 -1.53737,0 -2.87022,-0.23977 -3.99857,-0.71932 -1.12834,-0.49365 -2.05217,-1.22002 -2.77149,-2.17911 l -0.21157,1.01551 c -0.0846,0.42313 0.18415,0.8903 -0.0274,1.07366 -0.21157,0.18335 -0.86821,0.1111 -1.13619,0.1111 -0.19746,0 -0.36671,-0.0635 -0.50776,-0.19041 -0.12693,-0.12694 -0.1904,-0.28209 -0.1904,-0.46544 0,-0.12694 0.0212,-0.30324 0.0635,-0.52891 l 1.05782,-4.908295 c 0.0846,-0.437233 0.22567,-0.747528 0.42313,-0.930884 0.21156,-0.183356 0.45133,-0.275034 0.71932,-0.275034 0.21156,0 0.9714,-0.06646 1.09834,0.06048 0.14104,0.126938 -0.37903,0.404963 -0.37903,0.574215 0,0.09873 -0.0212,0.246825 -0.0635,0.444285 -0.0282,0.19746 -0.0423,0.39492 -0.0423,0.59238 0,1.21297 0.55007,2.277845 1.65021,3.194624 1.10013,0.90267 2.67276,1.35401 4.71788,1.35401 1.53737,0 2.99716,-0.3244 4.37939,-0.97319 1.38222,-0.662905 2.41183,-1.509164 3.08884,-2.538778 0.69111,-1.043718 1.03666,-2.080384 1.03666,-3.109997 0,-0.775737 -0.20451,-1.445691 -0.61353,-2.009863 -0.40903,-0.564171 -1.03667,-1.015509 -1.88293,-1.354012 -0.55007,-0.225669 -1.77009,-0.507755 -3.66006,-0.846258 -2.52467,-0.437233 -4.33002,-1.05077 -5.41605,-1.840611 -1.10013,-0.78984 -1.6502,-1.946392 -1.6502,-3.469657 0,-2.073331 0.92383,-3.942151 2.77149,-5.606458 1.84766,-1.664307 4.16076,-2.49646 6.93931,-2.49646 1.24118,0 2.35542,0.19746 3.34272,0.59238 0.9873,0.380816 1.84061,0.966144 2.55993,1.755985 z"
         style="font-style:italic;font-variant:normal;font-weight:normal;font-stretch:normal;font-size:43.3284px;font-family:'Courier New';-inkscape-font-specification:'Courier New Italic';stroke-width:0.108322"
         id="path884"
         inkscape:connector-curvature="0"
         sodipodi:nodetypes="ccscscccscscscscscsccsccsccccscscccscscscsccsccccsssccc" />
      <path
         d="m 200.55774,79.568221 c 0.16925,-0.789841 0.3244,-1.262334 0.46545,-1.417481 0.23977,-0.239773 0.51481,-0.35966 0.8251,-0.35966 0.19746,0 0.95025,-0.05465 1.07719,0.07229 0.14104,0.126939 -0.37903,0.400204 -0.37903,0.58356 0,0.112834 -0.0282,0.289138 -0.0846,0.528911 l -0.95204,4.527479 c -0.0987,0.423129 0.24726,0.876711 0.0357,1.060066 -0.19746,0.183356 -0.93131,0.124695 -1.19929,0.124695 -0.19746,0 -0.36671,-0.06347 -0.50775,-0.190408 -0.12694,-0.126939 -0.19041,-0.282086 -0.19041,-0.465442 0,-0.09873 0.0141,-0.239773 0.0423,-0.423129 0.0423,-0.19746 0.0635,-0.39492 0.0635,-0.59238 0,-1.057822 -0.47955,-1.988706 -1.43864,-2.792651 -0.95909,-0.818049 -2.27784,-1.227074 -3.95625,-1.227074 -2.22848,0 -4.05499,0.620589 -5.47952,1.861768 -1.41043,1.227073 -2.11565,2.59519 -2.11565,4.10435 0,1.114239 0.42313,1.960497 1.26939,2.538773 0.84626,0.592381 2.33426,1.071927 4.46401,1.438639 2.12975,0.366711 3.56838,0.698162 4.31591,0.994352 1.04372,0.423129 1.83356,1.001406 2.36953,1.734829 0.53596,0.733423 0.80394,1.64315 0.80394,2.729181 0,1.466847 -0.43723,2.891381 -1.3117,4.273602 -0.86036,1.368119 -2.17206,2.475309 -3.9351,3.321559 -1.76303,0.83215 -3.58954,1.24823 -5.47952,1.24823 -1.53737,0 -2.87022,-0.23977 -3.99857,-0.71932 -1.12834,-0.49365 -2.05217,-1.22002 -2.77149,-2.17911 l -0.21156,1.01551 c -0.0846,0.42313 0.235,0.89341 0.0234,1.07677 -0.21156,0.18336 -0.91906,0.10799 -1.18704,0.10799 -0.19746,0 -0.36671,-0.0635 -0.50775,-0.19041 -0.12694,-0.12694 -0.19041,-0.28209 -0.19041,-0.46544 0,-0.12694 0.0212,-0.30324 0.0635,-0.52891 l 1.05782,-4.908295 c 0.0846,-0.437233 0.22567,-0.747528 0.42313,-0.930884 0.21157,-0.183356 0.45134,-0.275034 0.71932,-0.275034 0.21156,0 1.06569,-0.05346 1.19263,0.07348 0.14104,0.126938 -0.47331,0.391964 -0.47331,0.561216 0,0.09873 -0.0212,0.246825 -0.0635,0.444285 -0.0282,0.19746 -0.0423,0.39492 -0.0423,0.59238 0,1.21297 0.55007,2.277845 1.65021,3.194624 1.10013,0.90267 2.67276,1.35401 4.71788,1.35401 1.53737,0 2.99717,-0.3244 4.37939,-0.97319 1.38222,-0.662905 2.41183,-1.509164 3.08884,-2.538778 0.69111,-1.043718 1.03667,-2.080384 1.03667,-3.109997 0,-0.775737 -0.20451,-1.445691 -0.61354,-2.009863 -0.40903,-0.564171 -1.03667,-1.015509 -1.88292,-1.354012 -0.55007,-0.225669 -1.7701,-0.507755 -3.66007,-0.846258 -2.52467,-0.437233 -4.33002,-1.05077 -5.41605,-1.840611 -1.10013,-0.78984 -1.6502,-1.946392 -1.6502,-3.469657 0,-2.073331 0.92383,-3.942151 2.77149,-5.606458 1.84767,-1.664307 4.16077,-2.49646 6.93932,-2.49646 1.24117,0 2.35541,0.19746 3.34271,0.59238 0.98731,0.380816 1.84062,0.966144 2.55993,1.755985 z"
         style="font-style:italic;font-variant:normal;font-weight:normal;font-stretch:normal;font-size:43.3284px;font-family:'Courier New';-inkscape-font-specification:'Courier New Italic';stroke-width:0.108322"
         id="path886"
         inkscape:connector-curvature="0"
         sodipodi:nodetypes="ccscscccscscscscscsccsccsccccscscccscscscsccsscccscsccc" />
    </g>
    <path
       sodipodi:nodetypes="cscscc"
       inkscape:connector-curvature="0"
       id="path856"
       d="m 27.971265,83.217566 c 0,0 0.305958,1.483412 2.73092,2.209564 4.823361,1.44435 13.521967,-0.0312 13.521967,-0.0312 0,0 -6.651823,4.23386 -15.423966,4.54559 -5.829922,0.20717 -8.19078,-2.45383 -5.511645,-5.62269 z"
       style="opacity:0.997;fill:#d40000;fill-opacity:0.996078;stroke-width:0.246284" />
    <text
       id="text891"
       y="156.59473"
       x="90.374359"
       style="font-size:32.2307px;line-height:1.25;font-family:'Courier New';-inkscape-font-specification:'Courier New';stroke-width:0.167868"
       xml:space="preserve"><tspan
         style="font-style:italic;font-variant:normal;font-weight:normal;font-stretch:normal;font-size:67.1467px;font-family:'Courier New';-inkscape-font-specification:'Courier New Italic';stroke-width:0.167868"
         y="156.59473"
         x="90.374359"
         id="tspan889"
         sodipodi:role="line">DB</tspan></text>
  </g>
</svg>
